<?xml version="1.0" encoding="UTF-8" standalone="no"?>
<!DOCTYPE svg PUBLIC "-//W3C//DTD SVG 1.1//EN"
 "http://www.w3.org/Graphics/SVG/1.1/DTD/svg11.dtd">
<!-- Generated by graphviz version 2.43.0 (0)
 -->
<!-- Title: %3 Pages: 1 -->
<svg width="328pt" height="586pt"
 viewBox="0.00 0.00 328.00 586.00" xmlns="http://www.w3.org/2000/svg" xmlns:xlink="http://www.w3.org/1999/xlink">
<g id="graph0" class="graph" transform="scale(1 1) rotate(0) translate(4 582)">
<title>%3</title>
<g id="a_graph0"><a xlink:title=" ">
<polygon fill="white" stroke="transparent" points="-4,4 -4,-582 324,-582 324,4 -4,4"/>
</a>
</g>
<!-- hqc::gf2x::karatsuba_mul -->
<g id="node1" class="node">
<title>hqc::gf2x::karatsuba_mul</title>
<polygon fill="#fb1b01" stroke="#fb1b01" points="130.5,-269 3.5,-269 3.5,-206 130.5,-206 130.5,-269"/>
<text text-anchor="middle" x="67" y="-257" font-family="Arial" font-size="10.00" fill="#ffffff">profile_kats</text>
<text text-anchor="middle" x="67" y="-246" font-family="Arial" font-size="10.00" fill="#ffffff">hqc::gf2x::karatsuba_mul</text>
<text text-anchor="middle" x="67" y="-235" font-family="Arial" font-size="10.00" fill="#ffffff">97.36%</text>
<text text-anchor="middle" x="67" y="-224" font-family="Arial" font-size="10.00" fill="#ffffff">(0.03%)</text>
<text text-anchor="middle" x="67" y="-213" font-family="Arial" font-size="10.00" fill="#ffffff">1×</text>
</g>
<!-- hqc::gf2x::karatsuba_mul&#39;2 -->
<g id="node2" class="node">
<title>hqc::gf2x::karatsuba_mul&#39;2</title>
<polygon fill="#fb1c01" stroke="#fb1c01" points="134,-166 0,-166 0,-103 134,-103 134,-166"/>
<text text-anchor="middle" x="67" y="-154" font-family="Arial" font-size="10.00" fill="#ffffff">profile_kats</text>
<text text-anchor="middle" x="67" y="-143" font-family="Arial" font-size="10.00" fill="#ffffff">hqc::gf2x::karatsuba_mul&#39;2</text>
<text text-anchor="middle" x="67" y="-132" font-family="Arial" font-size="10.00" fill="#ffffff">97.31%</text>
<text text-anchor="middle" x="67" y="-121" font-family="Arial" font-size="10.00" fill="#ffffff">(0.51%)</text>
<text text-anchor="middle" x="67" y="-110" font-family="Arial" font-size="10.00" fill="#ffffff">363×</text>
</g>
<!-- hqc::gf2x::karatsuba_mul&#45;&gt;hqc::gf2x::karatsuba_mul&#39;2 -->
<g id="edge1" class="edge">
<title>hqc::gf2x::karatsuba_mul&#45;&gt;hqc::gf2x::karatsuba_mul&#39;2</title>
<path fill="none" stroke="#fb1c01" stroke-width="3.89" d="M67,-205.92C67,-196.61 67,-186.23 67,-176.36"/>
<polygon fill="#fb1c01" stroke="#fb1c01" stroke-width="3.89" points="70.47,-176.22 67,-166.32 63.54,-176.22 70.47,-176.22"/>
<text text-anchor="middle" x="84" y="-189" font-family="Arial" font-size="10.00" fill="#fb1c01">97.31%</text>
<text text-anchor="middle" x="84" y="-178" font-family="Arial" font-size="10.00" fill="#fb1c01">3×</text>
</g>
<!-- hqc::gf2x::karatsuba_mul&#39;2&#45;&gt;hqc::gf2x::karatsuba_mul&#39;2 -->
<g id="edge2" class="edge">
<title>hqc::gf2x::karatsuba_mul&#39;2&#45;&gt;hqc::gf2x::karatsuba_mul&#39;2</title>
<path fill="none" stroke="#fb1c01" stroke-width="3.89" d="M134.2,-141.68C139.63,-140.11 143,-137.72 143,-134.5 143,-133.9 142.88,-133.32 142.65,-132.77"/>
<polygon fill="#fb1c01" stroke="#fb1c01" stroke-width="3.89" points="144.4,-129.78 134.2,-127.32 140.64,-135.6 144.4,-129.78"/>
<text text-anchor="middle" x="154" y="-132" font-family="Arial" font-size="10.00" fill="#fb1c01">360×</text>
</g>
<!-- hqc::gf2x::schoolbook_mul -->
<g id="node3" class="node">
<title>hqc::gf2x::schoolbook_mul</title>
<polygon fill="#fa2201" stroke="#fa2201" points="134,-63 0,-63 0,0 134,0 134,-63"/>
<text text-anchor="middle" x="67" y="-51" font-family="Arial" font-size="10.00" fill="#ffffff">profile_kats</text>
<text text-anchor="middle" x="67" y="-40" font-family="Arial" font-size="10.00" fill="#ffffff">hqc::gf2x::schoolbook_mul</text>
<text text-anchor="middle" x="67" y="-29" font-family="Arial" font-size="10.00" fill="#ffffff">96.66%</text>
<text text-anchor="middle" x="67" y="-18" font-family="Arial" font-size="10.00" fill="#ffffff">(96.63%)</text>
<text text-anchor="middle" x="67" y="-7" font-family="Arial" font-size="10.00" fill="#ffffff">243×</text>
</g>
<!-- hqc::gf2x::karatsuba_mul&#39;2&#45;&gt;hqc::gf2x::schoolbook_mul -->
<g id="edge3" class="edge">
<title>hqc::gf2x::karatsuba_mul&#39;2&#45;&gt;hqc::gf2x::schoolbook_mul</title>
<path fill="none" stroke="#fa2201" stroke-width="3.87" d="M67,-102.92C67,-93.61 67,-83.23 67,-73.36"/>
<polygon fill="#fa2201" stroke="#fa2201" stroke-width="3.87" points="70.43,-73.12 67,-63.32 63.57,-73.12 70.43,-73.12"/>
<text text-anchor="middle" x="84" y="-86" font-family="Arial" font-size="10.00" fill="#fa2201">96.66%</text>
<text text-anchor="middle" x="84" y="-75" font-family="Arial" font-size="10.00" fill="#fa2201">243×</text>
</g>
<!-- hqc::gf2x::vect_mul -->
<g id="node4" class="node">
<title>hqc::gf2x::vect_mul</title>
<polygon fill="#fb1a01" stroke="#fb1a01" points="118.5,-372 15.5,-372 15.5,-309 118.5,-309 118.5,-372"/>
<text text-anchor="middle" x="67" y="-360" font-family="Arial" font-size="10.00" fill="#ffffff">profile_kats</text>
<text text-anchor="middle" x="67" y="-349" font-family="Arial" font-size="10.00" fill="#ffffff">hqc::gf2x::vect_mul</text>
<text text-anchor="middle" x="67" y="-338" font-family="Arial" font-size="10.00" fill="#ffffff">97.50%</text>
<text text-anchor="middle" x="67" y="-327" font-family="Arial" font-size="10.00" fill="#ffffff">(0.00%)</text>
<text text-anchor="middle" x="67" y="-316" font-family="Arial" font-size="10.00" fill="#ffffff">1×</text>
</g>
<!-- hqc::gf2x::vect_mul&#45;&gt;hqc::gf2x::karatsuba_mul -->
<g id="edge4" class="edge">
<title>hqc::gf2x::vect_mul&#45;&gt;hqc::gf2x::karatsuba_mul</title>
<path fill="none" stroke="#fb1b01" stroke-width="3.89" d="M67,-308.92C67,-299.61 67,-289.23 67,-279.36"/>
<polygon fill="#fb1b01" stroke="#fb1b01" stroke-width="3.89" points="70.47,-279.22 67,-269.32 63.54,-279.22 70.47,-279.22"/>
<text text-anchor="middle" x="84" y="-292" font-family="Arial" font-size="10.00" fill="#fb1b01">97.36%</text>
<text text-anchor="middle" x="84" y="-281" font-family="Arial" font-size="10.00" fill="#fb1b01">1×</text>
</g>
<!-- hqc::hqc::hqc_pke_keygen -->
<g id="node5" class="node">
<title>hqc::hqc::hqc_pke_keygen</title>
<polygon fill="#fd0d00" stroke="#fd0d00" points="213,-475 79,-475 79,-412 213,-412 213,-475"/>
<text text-anchor="middle" x="146" y="-463" font-family="Arial" font-size="10.00" fill="#ffffff">profile_kats</text>
<text text-anchor="middle" x="146" y="-452" font-family="Arial" font-size="10.00" fill="#ffffff">hqc::hqc::hqc_pke_keygen</text>
<text text-anchor="middle" x="146" y="-441" font-family="Arial" font-size="10.00" fill="#ffffff">98.70%</text>
<text text-anchor="middle" x="146" y="-430" font-family="Arial" font-size="10.00" fill="#ffffff">(0.01%)</text>
<text text-anchor="middle" x="146" y="-419" font-family="Arial" font-size="10.00" fill="#ffffff">1×</text>
</g>
<!-- hqc::hqc::hqc_pke_keygen&#45;&gt;hqc::gf2x::vect_mul -->
<g id="edge5" class="edge">
<title>hqc::hqc::hqc_pke_keygen&#45;&gt;hqc::gf2x::vect_mul</title>
<path fill="none" stroke="#fb1a01" stroke-width="3.9" d="M122.08,-411.92C114.27,-401.93 105.48,-390.7 97.26,-380.19"/>
<polygon fill="#fb1a01" stroke="#fb1a01" stroke-width="3.9" points="99.94,-377.99 91.11,-372.32 94.48,-382.25 99.94,-377.99"/>
<text text-anchor="middle" x="131" y="-395" font-family="Arial" font-size="10.00" fill="#fb1a01">97.50%</text>
<text text-anchor="middle" x="131" y="-384" font-family="Arial" font-size="10.00" fill="#fb1a01">1×</text>
</g>
<!-- hqc::vector::vect_sample_fixed_weight1 -->
<g id="node6" class="node">
<title>hqc::vector::vect_sample_fixed_weight1</title>
<polygon fill="#0d1074" stroke="#0d1074" points="320,-372 128,-372 128,-309 320,-309 320,-372"/>
<text text-anchor="middle" x="224" y="-360" font-family="Arial" font-size="10.00" fill="#ffffff">profile_kats</text>
<text text-anchor="middle" x="224" y="-349" font-family="Arial" font-size="10.00" fill="#ffffff">hqc::vector::vect_sample_fixed_weight1</text>
<text text-anchor="middle" x="224" y="-338" font-family="Arial" font-size="10.00" fill="#ffffff">0.71%</text>
<text text-anchor="middle" x="224" y="-327" font-family="Arial" font-size="10.00" fill="#ffffff">(0.64%)</text>
<text text-anchor="middle" x="224" y="-316" font-family="Arial" font-size="10.00" fill="#ffffff">2×</text>
</g>
<!-- hqc::hqc::hqc_pke_keygen&#45;&gt;hqc::vector::vect_sample_fixed_weight1 -->
<g id="edge6" class="edge">
<title>hqc::hqc::hqc_pke_keygen&#45;&gt;hqc::vector::vect_sample_fixed_weight1</title>
<path fill="none" stroke="#0d1074" stroke-width="0.5" d="M169.61,-411.92C178.54,-400.36 188.75,-387.14 197.9,-375.3"/>
<polygon fill="#0d1074" stroke="#0d1074" stroke-width="0.5" points="199.03,-375.84 200.2,-372.32 197.09,-374.34 199.03,-375.84"/>
<text text-anchor="middle" x="206" y="-395" font-family="Arial" font-size="10.00" fill="#0d1074">0.71%</text>
<text text-anchor="middle" x="206" y="-384" font-family="Arial" font-size="10.00" fill="#0d1074">2×</text>
</g>
<!-- hqc::kem::crypto_kem_keypair -->
<g id="node7" class="node">
<title>hqc::kem::crypto_kem_keypair</title>
<polygon fill="#fd0d00" stroke="#fd0d00" points="221.5,-578 70.5,-578 70.5,-515 221.5,-515 221.5,-578"/>
<text text-anchor="middle" x="146" y="-566" font-family="Arial" font-size="10.00" fill="#ffffff">profile_kats</text>
<text text-anchor="middle" x="146" y="-555" font-family="Arial" font-size="10.00" fill="#ffffff">hqc::kem::crypto_kem_keypair</text>
<text text-anchor="middle" x="146" y="-544" font-family="Arial" font-size="10.00" fill="#ffffff">98.78%</text>
<text text-anchor="middle" x="146" y="-533" font-family="Arial" font-size="10.00" fill="#ffffff">(0.00%)</text>
<text text-anchor="middle" x="146" y="-522" font-family="Arial" font-size="10.00" fill="#ffffff">1×</text>
</g>
<!-- hqc::kem::crypto_kem_keypair&#45;&gt;hqc::hqc::hqc_pke_keygen -->
<g id="edge7" class="edge">
<title>hqc::kem::crypto_kem_keypair&#45;&gt;hqc::hqc::hqc_pke_keygen</title>
<path fill="none" stroke="#fd0d00" stroke-width="3.95" d="M146,-514.92C146,-505.61 146,-495.23 146,-485.36"/>
<polygon fill="#fd0d00" stroke="#fd0d00" stroke-width="3.95" points="149.47,-485.22 146,-475.32 142.54,-485.22 149.47,-485.22"/>
<text text-anchor="middle" x="163" y="-498" font-family="Arial" font-size="10.00" fill="#fd0d00">98.70%</text>
<text text-anchor="middle" x="163" y="-487" font-family="Arial" font-size="10.00" fill="#fd0d00">1×</text>
</g>
</g>
</svg>
